<svg width="512" height="512" viewBox="0 0 512 512" fill="none" xmlns="http://www.w3.org/2000/svg">
  <defs>
    <linearGradient id="grad1" x1="0" y1="0" x2="512" y2="512" gradientUnits="userSpaceOnUse">
      <stop offset="0" stop-color="#3b82f6" />
      <stop offset="1" stop-color="#8b5cf6" />
    </linearGradient>
    <linearGradient id="grad2" x1="512" y1="0" x2="0" y2="512" gradientUnits="userSpaceOnUse">
      <stop offset="0" stop-color="#06b6d4" />
      <stop offset="1" stop-color="#3b82f6" />
    </linearGradient>
  </defs>
  <rect width="512" height="512" rx="128" fill="#f8fafc" />
  
  <g transform="translate(256, 256) scale(0.8)">
    <path d="M0 -220 C120 -220, 200 -120, 0 0 C-200 -120, -120 -220, 0 -220 Z" fill="url(#grad1)" opacity="0.9" transform="rotate(0)" />
    <path d="M0 -220 C120 -220, 200 -120, 0 0 C-200 -120, -120 -220, 0 -220 Z" fill="url(#grad2)" opacity="0.9" transform="rotate(120)" />
    <path d="M0 -220 C120 -220, 200 -120, 0 0 C-200 -120, -120 -220, 0 -220 Z" fill="url(#grad1)" opacity="0.9" transform="rotate(240)" />
    <circle cx="0" cy="0" r="40" fill="white" />
  </g>
</svg>